<?xml version="1.0" encoding="UTF-8" standalone="no"?>
<svg width="103px" height="137px" viewBox="0 0 103 137" version="1.1" xmlns="http://www.w3.org/2000/svg"
     xmlns:sketch="http://www.bohemiancoding.com/sketch/ns">
  <!-- Generator: Sketch 3.4 (15588) - http://www.bohemiancoding.com/sketch -->
  <title>Group</title>
  <desc>Created with Sketch.</desc>
  <defs></defs>
  <g id="Page-1" stroke="none" stroke-width="1" fill="none" fill-rule="evenodd" sketch:type="MSPage">
    <g id="Group" sketch:type="MSLayerGroup">
      <path
          d="M51.0601526,136.449096 C81.5839818,118.800544 102.120305,85.814071 102.120305,48.0334 C102.120305,34.3670048 99.4331589,21.3279231 94.5581607,9.41520809 C81.5154691,3.37246198 66.9821953,0 51.6608603,0 C35.7550523,0 20.698578,3.63467269 7.27745518,10.1183798 C2.58263604,21.8403188 0,34.6354016 0,48.0334 C0,85.814071 20.5363234,118.800544 51.0601526,136.449096 Z"
          id="Oval-1-Copy-5" fill="#FF4D39" sketch:type="MSShapeGroup"></path>
      <path
          d="M51.5392686,122.360291 C75.6201867,108.217163 91.7850163,82.0556042 91.7850163,52.1203707 C91.7850163,41.220245 89.641786,30.8204558 85.7535556,21.3190408 C75.3508871,16.499431 63.7593512,13.8096025 51.5392686,13.8096025 L51.5392686,122.360291 Z"
          id="Oval-1-Copy-6" fill="#F9796A" sketch:type="MSShapeGroup"></path>
      <g id="enonic-main-logo" transform="translate(26.431138, 22.815865)" fill="#FFFFFF" sketch:type="MSShapeGroup">
        <path
            d="M0,4.80299583 C0,2.1476063 1.89374874,0 4.25321938,0 C6.50420862,0 8.29134632,1.95246225 8.46996657,4.45153219 L8.46996657,4.52918114 C8.46996657,4.7825619 8.27357781,4.95829372 8.04165204,4.95829372 L0.857564242,4.95829372 C0.946406776,7.04766331 2.44831318,8.62924969 4.25321938,8.62924969 C5.41471861,8.62924969 6.48644011,7.96514688 7.07560639,6.89134373 C7.20092112,6.6573752 7.46931909,6.61855073 7.64793934,6.73502415 C7.84526328,6.89134373 7.91633731,7.16515843 7.79102258,7.39912695 C7.04006937,8.70689863 5.73548691,9.56614549 4.25321938,9.56614549 C1.89374874,9.56614549 0,7.41853919 0,4.80299583 L0,4.80299583 Z M0.910869762,4.04183185 L7.5413283,4.04183185 C7.25516182,2.24466748 5.86080164,0.936895804 4.25321938,0.936895804 C2.60916492,0.936895804 1.23257325,2.22627694 0.910869762,4.04183185 L0.910869762,4.04183185 Z"
            id="Fill-1"></path>
        <path
            d="M32.6347743,0 C30.5691205,0 28.897533,1.76089151 28.897533,3.89341303 L28.897533,9.09725694 C28.897533,9.37060463 29.1039018,9.56614549 29.3476136,9.56614549 C29.5923081,9.56614549 29.7986769,9.37060463 29.7986769,9.09725694 L29.7986769,3.89341303 C29.7986769,2.26970725 31.0565441,0.938800879 32.6347743,0.938800879 C34.2120218,0.938800879 35.469889,2.26970725 35.469889,3.89341303 L35.469889,9.09725694 C35.469889,9.37060463 35.6762578,9.56614549 35.9209523,9.56614549 C36.1646641,9.56614549 36.3710329,9.37060463 36.3710329,9.09725694 L36.3710329,3.89341303 C36.3710329,1.76089151 34.7004281,0 32.6347743,0"
            id="Fill-2"></path>
        <path
            d="M13.7184891,0 C11.6528353,0 9.98124775,1.76089151 9.98124775,3.89341303 L9.98124775,9.09725694 C9.98124775,9.37060463 10.1876166,9.56614549 10.4313284,9.56614549 C10.6760228,9.56614549 10.8823917,9.37060463 10.8823917,9.09725694 L10.8823917,3.89341303 C10.8823917,2.26970725 12.1402588,0.938800879 13.7184891,0.938800879 C15.2957366,0.938800879 16.5536038,2.26970725 16.5536038,3.89341303 L16.5536038,9.09725694 C16.5536038,9.37060463 16.7599726,9.56614549 17.0046671,9.56614549 C17.2483788,9.56614549 17.4547477,9.37060463 17.4547477,9.09725694 L17.4547477,3.89341303 C17.4547477,1.76089151 15.7841428,0 13.7184891,0"
            id="Fill-3"></path>
        <path
            d="M37.8657329,0.468958751 C37.8657329,0.195144055 38.0749909,0 38.3231111,0 C38.5891677,0 38.7984257,0.195144055 38.7984257,0.468958751 L38.7984257,9.09820844 C38.7984257,9.3515892 38.5891677,9.56614549 38.3231111,9.56614549 C38.0749909,9.56614549 37.8657329,9.3515892 37.8657329,9.09820844 L37.8657329,0.468958751"
            id="Fill-4"></path>
        <path
            d="M40.3568995,4.76417136 C40.3568995,2.10878183 42.4992141,0 45.1771072,0 C46.2863056,0 47.3394434,0.39028811 48.1613313,1.05439092 C48.3525379,1.19129826 48.390579,1.4835035 48.2193941,1.69805979 C48.0652275,1.87379161 47.7979387,1.93305001 47.5877116,1.77673043 C46.9179881,1.23012274 46.0760785,0.917483569 45.1771072,0.917483569 C42.9967516,0.917483569 41.2748913,2.65538953 41.2748913,4.76417136 C41.2748913,6.91075597 42.9967516,8.62924969 45.1771072,8.62924969 C46.0760785,8.62924969 46.9179881,8.31661052 47.5877116,7.78941506 C47.7979387,7.63309548 48.0652275,7.69235388 48.2193941,7.8680857 C48.390579,8.08264199 48.3525379,8.37586893 48.1232902,8.55160075 C47.3394434,9.17585738 46.2863056,9.56614549 45.1771072,9.56614549 C42.4992141,9.56614549 40.3568995,7.45736366 40.3568995,4.76417136"
            id="Fill-5"></path>
        <path
            d="M19.8274994,4.02785073 C20.1363608,2.25848434 21.5364033,0.913155758 23.1678497,0.913155758 C24.798328,0.913155758 26.1974022,2.25848434 26.5062636,4.02785073 L27.402833,4.02785073 C27.082353,1.77851829 25.3240701,0 23.1678497,0 C21.0280891,0 19.2552829,1.77851829 18.9328664,4.02785073 L19.8274994,4.02785073"
            id="Fill-6"></path>
        <path
            d="M26.5083566,5.53829476 C26.2124541,7.30450731 24.8083679,8.64074679 23.1683332,8.64074679 C21.5273316,8.64074679 20.1222783,7.30450731 19.8273429,5.53829476 L18.9328664,5.53829476 C19.2403729,7.78281458 21.0186888,9.56413157 23.1683332,9.56413157 C25.3334497,9.56413157 27.0982275,7.78281458 27.402833,5.53829476 L26.5083566,5.53829476"
            id="Fill-7"></path>
      </g>
      <path
          d="M16.0436702,84.9379886 L25.9271052,62.5442921 C26.0584471,62.2378275 26.1241172,62.00251 26.1241172,61.8383325 C26.1241172,61.674155 26.0584471,61.4169475 25.9271052,61.0667022 L17.1929068,41.6281856 C16.9740035,41.124708 16.9849485,40.6814354 17.2257422,40.2983546 C17.4665358,39.9152739 17.8058308,39.7237363 18.2436375,39.7237363 L25.8614345,39.7237363 C26.4086928,39.7237363 26.8355478,40.0630314 27.1420124,40.7416316 L32.7240189,54.6638124 C32.8115802,54.8827157 32.9429202,54.9921657 33.1180429,54.9921657 C33.2931655,54.9921657 33.4245055,54.8827157 33.5120669,54.6638124 L39.0940733,40.7416316 C39.4005379,40.0630314 39.827393,39.7237363 40.3746513,39.7237363 L47.9924483,39.7237363 C48.4302549,39.7237363 48.7750225,39.9152739 49.0267613,40.2983546 C49.2785001,40.6814354 49.2839726,41.124708 49.0431789,41.6281856 L40.3089806,61.1323728 C40.1776386,61.4826181 40.1119686,61.7343532 40.1119686,61.8875855 C40.1119686,62.0408178 40.1776386,62.2816078 40.3089806,62.6099628 L50.1924156,84.9379886 C50.3018672,85.1787822 50.3565922,85.4086272 50.3565922,85.6275306 C50.3565922,85.8683242 50.2909222,86.0762792 50.1595802,86.2514019 C49.9187866,86.6235375 49.5685465,86.8096025 49.1088496,86.8096025 L41.1955346,86.8096025 C40.4731536,86.8096025 40.0025186,86.4703075 39.7836153,85.7917072 L33.5120669,69.8665712 C33.4245055,69.6476679 33.2931655,69.5382178 33.1180429,69.5382178 C32.9429202,69.5382178 32.8115802,69.6476679 32.7240189,69.8665712 L26.4524705,85.7917072 C26.2335672,86.4703075 25.7629321,86.8096025 25.0405512,86.8096025 L17.1272362,86.8096025 C16.6894296,86.8096025 16.3391895,86.6125925 16.0765055,86.2185665 C15.9451636,86.0215536 15.8794935,85.8026535 15.8794935,85.5618599 C15.8794935,85.3648469 15.9342186,85.1568919 16.0436702,84.9379886 L16.0436702,84.9379886 Z M55.7087513,85.4633539 L55.7087513,41.069985 C55.7087513,40.7197397 55.8455639,40.4078071 56.119193,40.134178 C56.3928221,39.8605489 56.7047547,39.7237363 57.055,39.7237363 L71.8637347,39.7237363 C73.7900838,39.7237363 75.6124265,40.0958664 77.3308175,40.8401376 C79.0492085,41.5844089 80.5486736,42.5968215 81.829258,43.8774058 C83.1098423,45.1579902 84.122255,46.6574554 84.8665262,48.3758463 C85.6107975,50.0942373 85.9829275,51.91658 85.9829275,53.8429291 C85.9829275,55.8130589 85.6107975,57.6518191 84.8665262,59.3592649 C84.122255,61.0667107 83.1098423,62.5607034 81.829258,63.8412877 C80.5486736,65.1218721 79.0492085,66.1342847 77.3308175,66.878556 C75.6124265,67.6228272 73.7900838,67.9949572 71.8637347,67.9949572 L65.7891983,67.9949572 C65.3513917,67.9949572 65.1324916,68.2138573 65.1324916,68.6516639 L65.1324916,85.4633539 C65.1324916,85.8135992 64.9956791,86.1255317 64.72205,86.3991609 C64.4484209,86.67279 64.1364883,86.8096025 63.786243,86.8096025 L57.055,86.8096025 C56.7047547,86.8096025 56.3928221,86.67279 56.119193,86.3991609 C55.8455639,86.1255317 55.7087513,85.8135992 55.7087513,85.4633539 L55.7087513,85.4633539 Z M65.1324916,57.881675 C65.1324916,58.3194816 65.3513917,58.5493266 65.7891983,58.5712169 L71.8637347,58.5712169 C73.1552642,58.5712169 74.2607094,58.1115269 75.1801032,57.192133 C76.0994971,56.2727391 76.5591872,55.156349 76.5591872,53.8429291 C76.5591872,52.5513996 76.0994971,51.4459545 75.1801032,50.5265606 C74.2607094,49.6071667 73.1552642,49.1474766 71.8637347,49.1474766 L65.7891983,49.1474766 C65.3513917,49.1474766 65.1324916,49.3773217 65.1324916,49.8370186 L65.1324916,57.881675 Z"
          id="XP" fill="#FFFFFF" sketch:type="MSShapeGroup"></path>
      <path
          d="M6.00707677,130.297446 C33.6095566,114.086046 52.1383096,84.0986547 52.1383096,49.7857321 C52.1383096,37.2915864 49.6816561,25.3709456 45.224816,14.4800563 C33.300875,8.95563312 20.0142082,5.87244762 6.00707677,5.87244762 L6.00707677,130.297446 Z"
          id="Oval-1-Copy-7" opacity="0.150944496" fill="#FF4D39" sketch:type="MSShapeGroup"
          transform="translate(29.072693, 68.084947) scale(-1, 1) translate(-29.072693, -68.084947) "></path>
    </g>
  </g>
</svg>