<svg width="280px" height="326px" viewBox="0 0 280 326" version="1.1" xmlns="http://www.w3.org/2000/svg" xmlns:xlink="http://www.w3.org/1999/xlink" xmlns:sketch="http://www.bohemiancoding.com/sketch/ns">
    <title>Group</title>
    <desc>Created with Sketch.</desc>
    <defs></defs>
    <g id="Page-1" stroke="none" stroke-width="1" fill="none" fill-rule="evenodd" sketch:type="MSPage">
        <g id="Artboard-1" sketch:type="MSArtboardGroup" transform="translate(-266.000000, -177.000000)" fill="#FFFFFF">
            <g id="Group" sketch:type="MSLayerGroup" transform="translate(241.000000, 177.000000)">
                <polygon id="Triangle-1" sketch:type="MSShapeGroup" points="154.5 93 175 326 134 326 "></polygon>
                <polygon id="Triangle-1" sketch:type="MSShapeGroup" transform="translate(121.527346, 253.954103) rotate(-45.000000) translate(-121.527346, -253.954103) " points="120.414895 202.26695 132.231313 305.641256 110.823379 303.535131 "></polygon>
                <polygon id="Triangle-1" sketch:type="MSShapeGroup" transform="translate(195.189941, 206.219723) scale(-1, 1) rotate(-45.000000) translate(-195.189941, -206.219723) " points="196.021001 149.603882 206.724968 262.835565 183.654914 262.835564 "></polygon>
                <polygon id="Triangle-1" sketch:type="MSShapeGroup" transform="translate(227.320800, 193.241699) scale(-1, 1) rotate(-45.000000) translate(-227.320800, -193.241699) " points="210.811514 174.05383 243.830087 196.974035 240.494806 212.429567 "></polygon>
                <polygon id="Triangle-1" sketch:type="MSShapeGroup" transform="translate(117.570312, 229.575195) scale(-1, 1) rotate(-45.000000) translate(-117.570312, -229.575195) " points="134.838495 214.348231 100.30213 244.802159 111.662794 244.802159 "></polygon>
                <polygon id="Triangle-1" sketch:type="MSShapeGroup" transform="translate(139.833984, 136.583984) scale(-1, 1) rotate(-45.000000) translate(-139.833984, -136.583984) " points="161.276445 136.310533 122.109359 131.36631 118.391524 141.801659 "></polygon>
                <path d="M248.699792,113 C248.89873,110.359388 249,107.69152 249,105 C249,47.0101013 201.989899,0 144,0 C86.0101013,0 39,47.0101013 39,105 C39,162.989899 86.0101013,210 144,210 C148.337946,210 152.614452,209.73694 156.814434,209.225902 C127.699546,207.11251 82.1216135,193.286105 66.9998158,145.026529 C59.1523216,119.982102 56.7908831,76.7384194 96.4986011,44.2997035 C136.206319,11.8609877 181.54875,25.2336754 192.370535,30.1436261 C237.021302,50.4021201 245.410406,83.3873525 245.675266,113.000004 L248.699792,113 Z" id="Oval-1" sketch:type="MSShapeGroup"></path>
                <path d="M94.7875573,133.171632 C56.7936098,133.171632 25.9934297,164.057161 25.9934297,202.156391 C25.9934297,240.255622 56.7936098,271.14115 94.7875573,271.14115 C97.1745719,271.14115 99.5331918,271.019241 101.857563,270.781293 C82.8727643,270.370142 54.4121607,266.701203 39.5375868,233.961109 C32.3615998,218.166204 28.5523131,191.606964 53.7160919,168.198294 C71.2633418,151.874919 85.2617155,154.18051 87.2719949,155.095121 C89.6909192,156.195652 92.2066892,157.339335 94.7875573,158.522471 L94.7875573,133.171632 Z M161.47322,219.171632 C160.974291,221.143894 160.390637,223.082274 159.72637,224.982649 C160.124459,223.075703 160.453107,221.136812 160.710976,219.171632 L161.47322,219.171632 Z" id="Oval-1" sketch:type="MSShapeGroup" transform="translate(93.733325, 202.156391) rotate(-30.000000) translate(-93.733325, -202.156391) "></path>
                <path d="M243.963356,233.32604 C241.347157,233.628025 238.686261,233.78324 235.989113,233.78324 C197.995165,233.78324 167.194985,202.98306 167.194985,164.989113 C167.194985,126.995165 197.995165,96.1949853 235.989113,96.1949853 C273.98306,96.1949853 304.78324,126.995165 304.78324,164.989113 C304.78324,172.966852 303.42529,180.627424 300.927925,187.752293 C302.039115,182.444132 302.609261,176.887759 302.609261,171.205841 C302.609261,151.556894 295.611963,134.354742 266.690015,119.671449 C259.74485,116.145479 234.869439,107.041042 207.959984,127.813978 C181.050529,148.586913 183.191221,177.385843 188.65201,194.50675 C198.630785,225.792649 225.396415,232.337441 243.96336,233.32604 Z" id="Oval-1" sketch:type="MSShapeGroup" transform="translate(235.989113, 164.989113) rotate(-296.000000) translate(-235.989113, -164.989113) "></path>
            </g>
        </g>
    </g>
</svg>