<?xml version="1.0" encoding="UTF-8" standalone="no"?>
<svg width="1109px" height="339px" viewBox="0 0 1109 339" version="1.1" xmlns="http://www.w3.org/2000/svg" xmlns:xlink="http://www.w3.org/1999/xlink" xmlns:sketch="http://www.bohemiancoding.com/sketch/ns">
    <!-- Generator: Sketch 3.1.1 (8761) - http://www.bohemiancoding.com/sketch -->
    <title>dxp 2</title>
    <desc>Created with Sketch.</desc>
    <defs></defs>
    <g id="Page-1" stroke="none" stroke-width="1" fill="none" fill-rule="evenodd" sketch:type="MSPage">
        <g id="dxp-2" sketch:type="MSLayerGroup" transform="translate(0.000000, -12.000000)">
            <text id="digital-experience-platform" sketch:type="MSTextLayer" font-family="Akkurat" font-size="86" font-weight="normal" sketch:alignment="right" fill="#9B9B9B">
                <tspan x="297.738" y="331.912736">experience platform</tspan>
            </text>
            <g id="logo-justert-4" transform="translate(0.000000, 12.965227)" fill="#FFFFFF" sketch:type="MSShapeGroup">
                <path d="M0,109.099655 C0,48.7827003 43.4476469,0 97.5801967,0 C149.223894,0 190.225599,44.3500191 194.323624,101.116187 L194.323624,102.879976 C194.323624,108.635499 189.817942,112.627233 184.496946,112.627233 L19.674811,112.627233 C21.7130956,160.087092 56.1708344,196.012696 97.5801967,196.012696 C124.228087,196.012696 148.816237,180.927655 162.333282,156.536305 C165.208336,151.221729 171.366102,150.339835 175.464127,152.985519 C179.991264,156.536305 181.621892,162.755983 178.746838,168.070559 C161.517968,197.776485 131.587367,217.294207 97.5801967,217.294207 C43.4476469,217.294207 0,168.511506 0,109.099655 L0,109.099655 Z M20.8977818,91.8098774 L173.018185,91.8098774 C166.452763,50.9874369 134.462421,21.281511 97.5801967,21.281511 C59.8612024,21.281511 28.2785179,50.5696974 20.8977818,91.8098774 L20.8977818,91.8098774 Z" id="Fill-1"></path>
                <path d="M748.728765,0 C701.337158,0 662.986481,39.9985055 662.986481,88.4385561 L662.986481,206.643442 C662.986481,212.852512 667.721133,217.294207 673.312531,217.294207 C678.926475,217.294207 683.661126,212.852512 683.661126,206.643442 L683.661126,88.4385561 C683.661126,51.5562132 712.519954,21.3247846 748.728765,21.3247846 C784.91503,21.3247846 813.773857,51.5562132 813.773857,88.4385561 L813.773857,206.643442 C813.773857,212.852512 818.508509,217.294207 824.122453,217.294207 C829.713851,217.294207 834.448502,212.852512 834.448502,206.643442 L834.448502,88.4385561 C834.448502,39.9985055 796.120371,0 748.728765,0" id="Fill-2"></path>
                <path d="M314.738729,0 C267.347122,0 228.996445,39.9985055 228.996445,88.4385561 L228.996445,206.643442 C228.996445,212.852512 233.731097,217.294207 239.322494,217.294207 C244.936438,217.294207 249.67109,212.852512 249.67109,206.643442 L249.67109,88.4385561 C249.67109,51.5562132 278.529918,21.3247846 314.738729,21.3247846 C350.924993,21.3247846 379.783821,51.5562132 379.783821,88.4385561 L379.783821,206.643442 C379.783821,212.852512 384.518473,217.294207 390.132417,217.294207 C395.723815,217.294207 400.458466,212.852512 400.458466,206.643442 L400.458466,88.4385561 C400.458466,39.9985055 362.130335,0 314.738729,0" id="Fill-3"></path>
                <path d="M868.740906,10.6523594 C868.740906,4.43268114 873.541843,0 879.234382,0 C885.33843,0 890.139367,4.43268114 890.139367,10.6523594 L890.139367,206.665055 C890.139367,212.420578 885.33843,217.294207 879.234382,217.294207 C873.541843,217.294207 868.740906,212.420578 868.740906,206.665055 L868.740906,10.6523594" id="Fill-4"></path>
                <path d="M925.894913,108.21776 C925.894913,47.9008056 975.045323,0 1036.48333,0 C1061.9313,0 1086.09309,8.86536227 1104.9494,23.9504028 C1109.33618,27.0602419 1110.20895,33.6976597 1106.28151,38.5712882 C1102.74452,42.563022 1096.6122,43.9090718 1091.78903,40.3582853 C1076.42378,27.9421366 1057.10813,20.8405637 1036.48333,20.8405637 C986.460161,20.8405637 946.956093,60.3169543 946.956093,108.21776 C946.956093,156.977252 986.460161,196.012696 1036.48333,196.012696 C1057.10813,196.012696 1076.42378,188.911123 1091.78903,176.935921 C1096.6122,173.385135 1102.74452,174.731185 1106.28151,178.722918 C1110.20895,183.596547 1109.33618,190.257173 1104.07663,194.248906 C1086.09309,208.428844 1061.9313,217.294207 1036.48333,217.294207 C975.045323,217.294207 925.894913,169.393401 925.894913,108.21776" id="Fill-5"></path>
            </g>
            <g id="Group" transform="translate(426.000000, 19.500000)" fill="#D04522" sketch:type="MSShapeGroup">
                <path d="M204.192502,136.114967 C207.30932,126.178958 208.989899,115.603715 208.989899,104.63449 C208.989899,46.8093185 162.287319,-0.0672451193 104.676768,-0.0672451193 C92.2943925,-0.0672451193 80.4159214,2.098262 69.3967593,6.07254735 L69.3967593,6.07254735 L74.5993608,20.3665774 C84.1845554,16.511394 94.6485414,14.3904555 105.606061,14.3904555 C151.66884,14.3904555 189.010101,51.870826 189.010101,98.1052061 C189.010101,110.731552 186.225171,122.705019 181.238225,133.440524 L182.17327,132.326173 L193.656566,141.961802 L193.656566,136.114967 L204.192502,136.114967 Z M37.9143528,24.1825706 C14.9667231,43.3885311 0.363636364,72.2997907 0.363636364,104.63449 C0.363636364,115.47965 2.00641436,125.939688 5.0558276,135.777583 L5.0558276,135.777583 L27.5256523,127.599236 C24.084552,118.426 22.2020202,108.486266 22.2020202,98.1052061 C22.2020202,75.8795674 30.8311579,55.6768801 44.9101199,40.6883017 L44.0375418,41.0058941 L37.9143528,24.1825706 L37.9143528,24.1825706 Z M182.85251,173.957251 C163.740055,195.654949 135.800198,209.336226 104.676768,209.336226 C78.4096092,209.336226 54.410049,199.591314 36.0708289,183.506873 L56.2438375,176.164475 L50.8013388,161.211333 C65.4582225,174.045877 84.6276443,181.819957 105.606061,181.819957 C128.271335,181.819957 148.824999,172.745397 163.857493,158.018539 L182.85251,173.957251 L182.85251,173.957251 Z" id="Oval-13"></path>
                <rect id="Rectangle-10" x="35.6767677" y="158.501085" width="25.5555556" height="27.516269"></rect>
                <path d="M27.8027844,165.122971 L32.5097505,207.69257 C32.9277325,211.470439 36.2974433,214.191723 40.0377361,213.76938 C43.7780289,213.347036 46.4697757,209.942165 46.0517937,206.162845 L42.1017917,170.434919 L77.4607733,166.443701 C81.1996298,166.021358 83.892813,162.616487 83.4748309,158.837167 C83.0568489,155.059298 79.6871381,152.338013 75.9468453,152.760357 L33.816842,157.516437 C30.0779856,157.93878 27.3848024,161.343651 27.8027844,165.122971 L27.8027844,165.122971 L27.8027844,165.122971 Z" id="Shape-path"></path>
                <path d="M193.527405,148.328993 L219.900749,132.008279 C222.242112,130.559908 222.77574,127.750371 221.094536,125.733268 C219.413331,123.716165 216.152147,123.25644 213.810784,124.704811 L191.675659,138.402723 L175.775735,119.333137 C174.09453,117.316034 170.833346,116.856309 168.491983,118.30468 C166.15062,119.753051 165.616991,122.562587 167.298196,124.57969 L186.242553,147.300536 C187.925957,149.316691 191.186042,149.777364 193.527405,148.328993 L193.527405,148.328993 L193.527405,148.328993 Z" id="Shape-2"></path>
                <path d="M51.8108555,24.8168626 L16.9427852,15.5195748 C13.8478559,14.6945679 10.6734754,16.544695 9.85207231,19.6532032 C9.03066927,22.7617114 10.8727145,25.9500194 13.9676438,26.7750263 L43.2313496,34.5782167 L35.4622458,63.9703157 C34.6408427,67.0788239 36.4828879,70.2671319 39.5778173,71.0921388 C42.6727466,71.9171457 45.8471271,70.0670186 46.6685301,66.9585104 L55.9252046,31.937458 C56.74783,28.8301775 54.9057848,25.6418695 51.8108555,24.8168626 L51.8108555,24.8168626 L51.8108555,24.8168626 Z" id="Shape-3" transform="translate(32.888889, 43.305857) rotate(-10.000000) translate(-32.888889, -43.305857) "></path>
            </g>
        </g>
    </g>
</svg>