<?xml version="1.0" standalone="no"?>
<!DOCTYPE svg PUBLIC "-//W3C//DTD SVG 20010904//EN"
 "http://www.w3.org/TR/2001/REC-SVG-20010904/DTD/svg10.dtd">
<svg version="1.0" xmlns="http://www.w3.org/2000/svg"
 width="128.000000pt" height="128.000000pt" viewBox="0 0 128.000000 128.000000"
 preserveAspectRatio="xMidYMid meet">
<metadata>
Created by potrace 1.13, written by Peter Selinger 2001-2015
</metadata>
<g transform="translate(0.000000,128.000000) scale(0.100000,-0.100000)"
fill="#000000" stroke="none">
<path d="M545 1274 c-16 -3 -59 -14 -95 -26 -203 -64 -353 -215 -421 -423 -33
-100 -33 -270 0 -370 35 -108 87 -193 165 -270 249 -247 646 -245 896 5 75 75
121 148 157 252 23 64 26 89 26 198 0 109 -3 134 -26 198 -91 260 -313 427
-579 437 -51 2 -106 1 -123 -1z m206 -128 c192 -41 348 -195 394 -388 65 -277
-108 -557 -386 -623 -279 -65 -558 108 -624 387 -75 321 170 633 500 637 28 0
80 -6 116 -13z"/>
<path d="M585 1015 c-16 -15 -25 -35 -25 -56 0 -27 16 -48 102 -135 l102 -104
-238 0 -237 0 -24 -25 c-33 -32 -33 -78 0 -110 l24 -25 237 0 238 0 -102 -104
c-86 -87 -102 -108 -102 -135 0 -43 38 -81 82 -81 29 0 53 20 215 183 166 166
183 186 183 217 0 31 -17 51 -183 217 -162 163 -186 183 -215 183 -22 0 -41
-9 -57 -25z"/>
</g>
</svg>
