<?xml version="1.0" encoding="utf-8"?>
<!-- Generated by IcoMoon.io -->
<!DOCTYPE svg PUBLIC "-//W3C//DTD SVG 1.1//EN" "http://www.w3.org/Graphics/SVG/1.1/DTD/svg11.dtd">
<svg version="1.1" xmlns="http://www.w3.org/2000/svg" width="32" height="32" viewBox="0 0 32 32">
  <path fill="#FFF"
        d="M28 2c-0.983-2-8-2-12-2s-11.018 0-12 2-2 14-2 14v12h4v2c0 1.105 0.895 2 2 2s2-0.895 2-2v-2h12v2c0 1.105 0.895 2 2 2s2-0.895 2-2v-2h4v-12c0 0-1.017-12-2-14zM10 2h12v2h-12v-2zM8 22c-1.105 0-2-0.895-2-2s0.895-2 2-2 2 0.895 2 2-0.895 2-2 2zM6.406 14c0.050-0.47 0.104-0.957 0.16-1.452 0.38-3.333 0.678-5.112 0.865-6.029 0.537-0.125 1.45-0.28 2.929-0.384 1.92-0.135 3.983-0.135 5.639-0.135s3.719 0 5.639 0.135c1.479 0.104 2.392 0.259 2.929 0.384 0.187 0.917 0.485 2.696 0.865 6.029 0.056 0.495 0.11 0.982 0.16 1.452h-19.188zM24 22c-1.105 0-2-0.895-2-2s0.895-2 2-2 2 0.895 2 2-0.895 2-2 2z"></path>
</svg>
