<?xml version="1.0" encoding="UTF-8" standalone="no"?>
<svg width="21px" height="30px" viewBox="0 0 21 30" version="1.1" xmlns="http://www.w3.org/2000/svg">
    <g id="docs" transform="translate(1.000000, 2.000000)" stroke="#FFFFFF" stroke-width="2" fill="#000000">
        <path d="M12.5,0 L13,0 L19,7 L19,25.009 C19,26.102 18.106,27 17.003,27 L1.998,27 C0.891,27 0.001,26.101 0.001,24.993 L0.001,2.008 C0.001,0.899 0.898,0.001 2.004,0.001 L12.501,0.001 L12.5,0 Z M12,1 L1.996,1 C1.446,1 1,1.455 1,1.995 L1,25.004 C1,25.554 1.455,25.999 2,25.999 L17,25.999 C17.552,25.999 18,25.554 18,25.006 L18,7.999 L13.998,7.999 C12.895,7.999 12,7.112 12,5.993 L12,0.999 L12,1 Z M13,1.5 L13,5.991 C13,6.548 13.451,7 13.997,7 L17.7,7 L13,1.5 L13,1.5 Z" id="Shape"></path>
    </g>
</svg>