<?xml version="1.0" encoding="UTF-8" standalone="no"?>
<svg width="252px" height="281px" viewBox="0 0 252 281" version="1.1" xmlns="http://www.w3.org/2000/svg">
    <!-- Generator: Sketch 3.8.3 (29802) - http://www.bohemiancoding.com/sketch -->
    <title>Group</title>
    <desc>Created with Sketch.</desc>
    <defs></defs>
    <g id="Page-1" stroke="none" stroke-width="1" fill="none" fill-rule="evenodd">
        <g id="Group" fill="#FFFFFF">
            <path d="M9.65299547,118 L242.347159,118 C248.08489,118 252.393011,122.486941 251.971531,127.99682 L241.032219,271.00318 C240.609881,276.524271 236.081076,281 230.90054,281 L21.0996137,281 C15.9263796,281 11.3894149,276.513059 10.9679352,271.00318 L0.0286232165,127.99682 C-0.3937142,122.475729 3.90716529,118 9.65299547,118 Z M232,118 C232,183.1696 184.318326,236 125.5,236 C66.6816741,236 19,183.1696 19,118 L41.0010984,118 C41.0003946,118.166564 41,118.333231 41,118.5 C41,170.138624 78.8319386,212 125.5,212 C172.168061,212 210,170.138624 210,118.5 C210,118.333231 209.999605,118.166564 209.998817,118 L232,118 Z" id="Rectangle-22"></path>
            <path d="M232,118 C232,52.8303995 184.318326,0 125.5,0 C66.6816741,0 19,52.8303995 19,118 L41.0010984,118 C41.2444517,66.5914265 78.982655,25 125.5,25 C172.017345,25 209.755548,66.5914265 209.998817,118 L232,118 Z" id="Oval-159"></path>
        </g>
    </g>
</svg>