<?xml version="1.0" encoding="UTF-8" standalone="no"?>
<svg width="60px" height="49px" viewBox="0 0 60 49" version="1.1" xmlns="http://www.w3.org/2000/svg" xmlns:xlink="http://www.w3.org/1999/xlink">
    <!-- Generator: Sketch 3.8.1 (29687) - http://www.bohemiancoding.com/sketch -->
    <title>Page-1</title>
    <desc>Created with Sketch.</desc>
    <defs>
        <polygon id="path-1" points="0 0.0005226536 59.5346005 0.0005226536 59.5346005 48.3851797 0 48.3851797"></polygon>
    </defs>
    <g id="Page-1" stroke="none" stroke-width="1" fill="none" fill-rule="evenodd">
        <g transform="translate(0.000000, -1.000000)" id="twitter">
            <g>
                <g id="g10" transform="translate(30.000000, 25.283323) scale(1, -1) translate(-30.000000, -25.283323) translate(0.000000, 0.783323)">
                    <g id="g12">
                        <g id="g14">
                            <g id="g16-Clipped">
                                <g id="mask-2" fill="#FFFFFF">
                                    <polygon id="path-1" points="0 0.0005226536 59.5346005 0.0005226536 59.5346005 48.3851797 0 48.3851797"></polygon>
                                </g>
                                <g>
                                    <mask id="mask-2" fill="white">
                                        <use xlink:href="#path-1"></use>
                                    </mask>
                                    <g id="path-1"></g>
                                    <g id="g16" mask="url(#mask-2)">
                                        <g transform="translate(-1.000000, 0.000000)" id="path22">
                                            <g transform="translate(0.956446, 0.000000)">
                                                <path d="M59.578155,42.6568091 C57.3886719,41.6851525 55.0341174,41.0284383 52.5637081,40.7325728 C55.0850762,42.2449145 57.0210722,44.6384938 57.9331027,47.4900483 C55.5733217,46.0897722 52.9600537,45.074082 50.1764878,44.5266024 C47.9495479,46.8998853 44.7748628,48.3833504 41.2617595,48.3833504 C34.5156082,48.3833504 29.0477805,42.9150871 29.0477805,36.1693713 C29.0477805,35.2116957 29.1547938,34.2791946 29.3638988,33.3858053 C19.2122237,33.8945215 10.2121287,38.7586843 4.18767486,46.1476996 C3.13622648,44.3445447 2.53395532,42.2466567 2.53395532,40.0078264 C2.53395532,35.7696284 4.68942232,32.031697 7.96781058,29.8404717 C5.9656553,29.9030595 4.08196817,30.4527604 2.43508668,31.3682753 C2.43321383,31.3168811 2.43321383,31.2660094 2.43321383,31.2149636 C2.43321383,25.2959116 6.64405967,20.3603194 12.2312267,19.2374853 C11.207174,18.9583011 10.1283735,18.8106515 9.01429375,18.8106515 C8.226437,18.8106515 7.46253521,18.8851732 6.71544544,19.0284238 C8.270819,14.1760207 12.7808405,10.644189 18.1267157,10.5453204 C13.9429608,7.26871783 8.67713862,5.31704218 2.9540817,5.31704218 C1.96883611,5.31704218 0.995829326,5.37505673 0.0395039013,5.48734015 C5.44722648,2.02179834 11.8667193,0.000348435733 18.7653113,0.000348435733 C41.2315763,0.000348435733 53.5156781,18.6116076 53.5156781,34.753764 C53.5156781,35.2830815 53.5034828,35.8087839 53.48127,36.3326134 C55.8667482,38.0561072 57.9373275,40.2067832 59.5758466,42.656722" id="Shape" fill="#55ACEE"></path>
                                            </g>
                                        </g>
                                    </g>
                                </g>
                            </g>
                        </g>
                    </g>
                </g>
            </g>
        </g>
    </g>
</svg>