<?xml version="1.0" encoding="UTF-8" standalone="no"?>
<svg width="48px" height="19px" viewBox="0 0 48 19" version="1.1" xmlns="http://www.w3.org/2000/svg" xmlns:xlink="http://www.w3.org/1999/xlink">
    <!-- Generator: Sketch 3.8.1 (29687) - http://www.bohemiancoding.com/sketch -->
    <title>Page-1</title>
    <desc>Created with Sketch.</desc>
    <defs>
        <linearGradient x1="51.386031%" y1="97.5985548%" x2="51.386031%" y2="-0.151887631%" id="linearGradient-1">
            <stop stop-color="#912420" offset="0%"></stop>
            <stop stop-color="#CF332D" offset="100%"></stop>
        </linearGradient>
        <linearGradient x1="53.4045407%" y1="37.0144932%" x2="53.4045407%" y2="169.144133%" id="linearGradient-2">
            <stop stop-color="#FFFFFF" offset="0%"></stop>
            <stop stop-color="#B3B3B3" offset="100%"></stop>
        </linearGradient>
    </defs>
    <g id="Page-1" stroke="none" stroke-width="1" fill="none" fill-rule="evenodd">
        <g transform="translate(1.000000, 0.000000)" id="youtube">
            <g>
                <g id="svg2">
                    <g id="g13" transform="translate(0.009917, 0.010892)">
                        <g id="g3918" transform="translate(0.000000, 0.000000)">
                            <polygon id="path15" fill="#FFFFFF" points="20.5969342 1.35617674 20.5969342 16.613165 45.1776375 16.613165 45.1776375 1.35617674"></polygon>
                            <g id="g3770" transform="translate(0.010383, 0.015342)">
                                <g id="g4018" transform="translate(0.017376, 0.022246)">
                                    <g id="g4030" transform="translate(0.040986, 0.019448)">
                                        <path d="M8.41219663,15.2735993 C7.64370976,15.1802761 6.93781609,14.7281166 6.5976984,14.1113258 C6.25095762,13.4825238 6.21932353,13.1531873 6.23973102,10.3846089 C6.25553811,8.2401184 6.2610658,8.10568739 6.34606587,7.79859006 C6.54868067,7.06656104 6.94099632,6.56728288 7.55005347,6.26634133 C8.38592749,5.8533283 9.28676958,5.90723208 10.0754944,6.41745501 C10.5775871,6.74225722 10.8827167,7.21193683 11.0455392,7.91062425 C11.1176565,8.22008767 11.1245501,8.456735 11.1245501,10.6229777 C11.1245501,13.2563199 11.1117449,13.4084969 10.842142,13.9791125 C10.5823918,14.5288744 9.99508035,15.0132613 9.3821923,15.1832101 C9.11248265,15.2579982 8.64355657,15.3016955 8.41219663,15.2735993 L8.41219663,15.2735993 L8.41219663,15.2735993 Z M9.08562484,13.5536617 C9.37999021,13.3291381 9.382066,13.3106852 9.39837996,10.7735828 C9.41105004,8.80314365 9.40400047,8.46829556 9.34418587,8.19944115 C9.26358744,7.83716693 9.12220644,7.66413107 8.84604562,7.58976894 C8.48844852,7.49347784 8.16086996,7.69814271 8.04744019,8.08872204 C7.96006723,8.38957968 7.96097205,12.8594322 8.0484658,13.1609014 C8.11396447,13.3865815 8.32685074,13.6338914 8.48459443,13.6675517 C8.68959453,13.7112956 8.94154844,13.663551 9.08562315,13.5536617 L9.08562484,13.5536617 L9.08562484,13.5536617 Z M13.4130987,15.2754369 C12.9870308,15.2187085 12.7383741,15.0543085 12.5677217,14.7165133 C12.3534713,14.292419 12.3535857,14.2949021 12.3535857,10.0720309 L12.3535857,6.13064313 L13.2129571,6.13064313 L14.0723278,6.13064313 L14.090484,9.76326381 C14.1102092,13.7097487 14.1043238,13.6176384 14.3405494,13.6769275 C14.5574614,13.7313687 14.7972754,13.6151134 15.0965683,13.3104297 L15.3832937,13.0185397 L15.3941384,9.5745908 L15.4049828,6.13064313 L16.2631888,6.11916987 L17.1213944,6.10769789 L17.1213944,10.6187329 L17.1213944,15.1297687 L17.0048479,15.1537069 C16.8642408,15.1825867 15.5628104,15.1807055 15.4579584,15.1514693 C15.3938757,15.1336016 15.3837925,15.0751813 15.3837925,14.721763 L15.3837925,14.3127354 L15.1401045,14.5499964 C14.5793624,15.0959503 13.9742169,15.3501453 13.4130987,15.2754357 L13.4130987,15.2754369 L13.4130987,15.2754369 Z M2.26177774,15.1280193 C2.22573014,15.0696926 2.23113662,11.5830144 2.26804031,11.0891635 C2.31536197,10.4559069 2.28178134,9.95803367 1.82718921,8.68479307 C1.67961217,8.2714516 1.39517317,7.43407179 1.21734026,6.86842362 C-0.067342651,2.78212241 0.0190547069,3.05842858 0.141795059,3.05738051 C0.988025609,3.05015675 1.96043739,3.05519792 1.97179748,3.06655844 C1.97994217,3.07470313 2.25506678,4.07259408 2.58318484,5.28409345 C2.9113029,6.49559283 3.18516161,7.50406747 3.19175983,7.52514881 C3.19835763,7.54623058 3.39096185,6.84059572 3.61976921,5.95707031 C4.09941501,4.10494525 4.36855295,3.08234942 4.37884803,3.07292993 C4.40030359,3.05329885 4.63887288,3.0487654 5.41841174,3.05317467 L6.28125376,3.05805479 L6.26225415,3.19579149 C6.24672084,3.30839696 5.6579829,5.28576876 5.04143572,7.29610666 C4.97352305,7.5175449 4.80182302,8.08968196 4.65988048,8.56752235 C4.51793751,9.04536275 4.34581156,9.61296001 4.27737846,9.82884978 L4.15295433,10.2213765 L4.15295433,12.6760839 C4.15295433,14.9779176 4.14833528,15.1320552 4.07878841,15.1510819 C3.9241084,15.1933988 2.2893611,15.1726498 2.26177774,15.1280193 L2.26177774,15.1280193 L2.26177774,15.1280193 Z" id="path19-8" fill="#FFFFFF"></path>
                                        <path d="M8.43199783,15.1487353 C7.66351096,15.0554121 6.95761716,14.6032526 6.61749947,13.9864617 C6.27075865,13.3576598 6.23912455,13.0283233 6.25953205,10.2597449 C6.27533913,8.11525436 6.28086683,7.98082335 6.36586681,7.67372602 C6.56848174,6.941697 6.96079739,6.44241884 7.56985467,6.14147729 C8.40572869,5.72846426 9.30657065,5.78236804 10.0952955,6.29259097 C10.5973882,6.61739318 10.9025177,7.08707279 11.0653403,7.78576021 C11.1374576,8.09522363 11.1443512,8.33187096 11.1443512,10.4981137 C11.1443512,13.1314559 11.1315459,13.2836329 10.8619431,13.8542485 C10.6021928,14.4040103 10.0148814,14.8883972 9.40199337,15.0583461 C9.13228372,15.1331342 8.66335777,15.1768315 8.43199783,15.1487353 L8.43199783,15.1487353 L8.43199783,15.1487353 Z M9.10542591,13.4287976 C9.39979128,13.2042741 9.40186707,13.1858212 9.41818103,10.6487188 C9.43085111,8.67827961 9.42380154,8.34343152 9.36398694,8.07457711 C9.28338851,7.71230289 9.14200751,7.53926703 8.8658467,7.4649049 C8.50824972,7.36861381 8.18067116,7.57327867 8.06724139,7.963858 C7.97986843,8.26471564 7.98077325,12.7345682 8.06826699,13.0360374 C8.13376567,13.2617175 8.34665194,13.5090273 8.50439563,13.5426876 C8.70939573,13.5864316 8.96134951,13.5386869 9.10542422,13.4287976 L9.10542591,13.4287976 L9.10542591,13.4287976 L9.10542591,13.4287976 Z M13.4328998,15.1505729 C13.006832,15.0938445 12.7581753,14.9294445 12.5875229,14.5916492 C12.3732723,14.167555 12.3733868,14.1700381 12.3733868,9.94716688 L12.3733868,6.00577909 L13.2327583,6.00577909 L14.0921289,6.00577909 L14.1102851,9.63839977 C14.1300103,13.5848847 14.1241249,13.4927744 14.3603505,13.5520635 C14.5772625,13.6065047 14.8170765,13.4902494 15.1163697,13.1855656 L15.4030951,12.8936757 L15.4139399,9.44972676 L15.4247842,6.00577909 L16.2829898,5.99430583 L17.1411954,5.98283385 L17.1411954,10.4938688 L17.1411954,15.0049047 L17.024649,15.0288429 C16.8840418,15.0577227 15.5826118,15.0558414 15.4777599,15.0266052 C15.4136771,15.0087376 15.4035939,14.9503173 15.4035939,14.5968989 L15.4035939,14.1878714 L15.1599059,14.4251324 C14.5991635,14.9710863 13.994018,15.2252813 13.4328998,15.1505716 L13.4328998,15.1505729 L13.4328998,15.1505729 L13.4328998,15.1505729 Z M2.28157876,15.0031552 C2.24553116,14.9448286 2.25093765,11.4581503 2.28784133,10.9642994 C2.335163,10.3310429 2.22880611,9.83316963 1.77421398,8.55992904 C1.62663694,8.14658756 1.3603919,7.34559567 1.18255899,6.77994749 C-0.102123922,2.69364628 -0.033920523,2.93356454 0.0888198287,2.93251647 C0.935050379,2.92529271 1.98023841,2.93033388 1.99159851,2.9416944 C1.9997432,2.94983909 2.27486781,3.94773004 2.60298587,5.15922941 C2.93110393,6.37072879 3.20496263,7.37920343 3.21156086,7.40028477 C3.21815866,7.42136654 3.41076288,6.71573168 3.63957023,5.83220627 C4.11921604,3.98008121 4.38835398,2.95748538 4.39864905,2.94806589 C4.42010462,2.92843481 4.6586739,2.92390136 5.43821277,2.92831063 L6.30105479,2.93319075 L6.28205518,3.07092745 C6.26652187,3.18353292 5.67778393,5.16090472 5.06123674,7.17124262 C4.99332408,7.39268086 4.82162405,7.96481792 4.67968151,8.44265831 C4.53773854,8.92049871 4.36561259,9.48809597 4.29717949,9.70398574 L4.17275536,10.0965125 L4.17275536,12.5512199 C4.17275536,14.8530536 4.1681363,15.0071911 4.09858944,15.0262179 C3.94390943,15.0685348 2.30916213,15.0477857 2.28157876,15.0031552 L2.28157876,15.0031552 L2.28157876,15.0031552 Z" id="path19" stroke="#2F2F2F" fill="#2F2F2F"></path>
                                        <path d="M29.7440136,18.6590229 C28.7533688,18.6414447 27.5804879,18.6140275 27.1376114,18.598095 C24.1639312,18.4911168 22.1223147,18.376769 21.7143954,18.2943482 C21.1329516,18.1768669 20.4831819,17.7834154 20.1060635,17.3204629 C19.5016574,16.578491 19.1797808,15.6782596 19.0234403,14.2925563 C18.6599671,11.0709682 18.66803,7.31489014 19.0450925,4.20599186 C19.2102286,2.84443322 19.6210769,1.86011591 20.3107122,1.17379766 C20.7042815,0.782121109 21.0824018,0.562863354 21.5867457,0.433873995 C22.6779619,0.154787656 31.2219839,-0.0674736069 36.4189459,0.0480340848 C39.4207465,0.114752047 42.6645094,0.253062579 43.5266521,0.3510989 C44.6416243,0.47788532 45.4244901,1.0553191 45.9662615,2.15053649 C46.3753183,2.9774695 46.5069013,3.62111733 46.6723676,5.60454912 C46.8034591,7.17596339 46.8346003,8.15423724 46.8112486,9.96727729 C46.7833029,12.1371838 46.6453204,14.0483674 46.4391264,15.1215884 C46.22121,16.2558243 45.7053755,17.2230373 45.0392893,17.7463448 C44.5245905,18.1507151 43.9765637,18.3311146 43.1150694,18.3797598 C42.8586673,18.3942379 42.5344563,18.4149284 42.3946005,18.4257393 C41.8971168,18.4641937 39.2352673,18.5721521 37.7751227,18.6130943 C35.6049068,18.6739468 31.8086219,18.695657 29.7440136,18.6590229 L29.7440136,18.6590229 L29.7440136,18.6590229 Z" id="path17" fill="url(#linearGradient-1)"></path>
                                        <path d="M21.347122,3.26473019 L21.347122,4.06996013 L21.347122,4.87386567 L22.2900886,4.88578519 L23.2330553,4.89770472 L23.2436504,10.0045582 C23.2494082,12.8133273 23.2629289,15.1347556 23.274111,15.1643868 C23.289818,15.2060083 23.4862365,15.2156473 24.1336409,15.2067674 L24.9706563,15.1961722 L24.9918465,10.0469387 L25.0130368,4.89770472 L25.9785185,4.88578519 L26.9439994,4.87386567 L26.9320799,4.08055526 L26.9201608,3.28724484 L24.1336409,3.27532532 L21.347122,3.26473019 L21.347122,3.26473019 L21.347122,3.26473019 Z M33.4679511,3.26605246 L33.4679511,9.24170663 L33.4679511,15.2173604 L34.2308006,15.2173604 L34.99365,15.2173604 L34.99365,14.8147454 C34.99365,14.5478964 35.0101368,14.4121304 35.0413281,14.4121304 C35.0672115,14.4121304 35.2386196,14.5527918 35.4227528,14.7260112 C36.0161013,15.2841906 36.5301346,15.4383125 37.1709493,15.2491458 C37.4164978,15.1766594 37.7160434,14.8836027 37.8503642,14.5843013 C38.1082921,14.0095604 38.1086184,13.9960897 38.1086184,10.7674055 C38.1086184,8.11683304 38.1022359,7.79013812 38.035779,7.50410518 C37.8227067,6.58708221 37.3577754,6.18560601 36.577622,6.24460859 C36.1401321,6.27769592 35.7954187,6.45186969 35.383021,6.84985544 C35.2038366,7.02277814 35.0429173,7.1650521 35.0254354,7.165061 C35.0079534,7.16506948 34.99365,6.28778375 34.99365,5.21555652 L34.99365,3.26605246 L34.2308006,3.26605246 L33.4679511,3.26605246 L33.4679511,3.26605246 L33.4679511,3.26605246 Z M41.8645923,6.23533785 C41.6162509,6.24042182 41.3677272,6.28490866 41.1295572,6.37175016 C40.3077649,6.67139106 39.8221689,7.21143504 39.6263709,8.04578124 C39.5571677,8.34067255 39.5495562,8.60587757 39.5495562,10.7674055 C39.5495562,13.418453 39.5592698,13.5266733 39.8303272,14.0691131 C40.3132617,15.0355433 41.5230476,15.5395163 42.6221441,15.2319287 C43.4384735,15.0034752 44.0032491,14.4464904 44.2153848,13.6598761 C44.2516413,13.5254561 44.2918519,13.144423 44.3054434,12.8122657 L44.3306089,12.2083432 L43.545247,12.2083432 L42.7598808,12.2083432 L42.7400171,12.7486949 C42.7179538,13.3640775 42.654917,13.5749015 42.4314317,13.771125 C42.1929269,13.9805344 41.7549623,13.9949959 41.4699236,13.8029104 C41.1310617,13.5745519 41.0463303,13.1884386 41.0633334,11.9328698 L41.075255,11.0428789 L42.7016076,11.0309593 L44.3279602,11.0203642 L44.3054434,9.69597286 C44.2805279,8.21924133 44.2497257,7.99508312 44.0008376,7.4709954 C43.6319279,6.6941833 42.7515191,6.21718119 41.8645923,6.23533785 L41.8645923,6.23533785 L41.8645923,6.23533785 Z M27.3227753,6.35983064 L27.3227753,10.1965928 C27.3227753,14.3747559 27.3272032,14.4648154 27.5611657,14.8677211 C27.8167428,15.3078496 28.4168205,15.4457397 29.0484572,15.209414 C29.3534999,15.0952828 29.7108559,14.8484099 30.0126141,14.5419208 C30.1517401,14.4006135 30.2900065,14.2849889 30.3198729,14.2849889 C30.3607311,14.2849889 30.374173,14.4004054 30.374173,14.7511746 L30.374173,15.2173604 L31.1370224,15.2173604 L31.8998718,15.2173604 L31.8998718,10.7885957 L31.8998718,6.35983064 L31.1370224,6.35983064 L30.374173,6.35983064 L30.374173,9.77676073 L30.374173,13.192366 L30.0457239,13.5194907 C29.7849693,13.7786891 29.6753325,13.8567638 29.514643,13.9009154 C29.2414997,13.9759645 29.0697217,13.9244683 28.9570742,13.7327177 C28.872075,13.5880301 28.8703874,13.5229582 28.8590693,9.97277065 L28.8471497,6.35983064 L28.0856247,6.35983064 L27.3227753,6.35983064 L27.3227753,6.35983064 L27.3227753,6.35983064 Z M41.9268365,7.61535406 C42.2673428,7.61535406 42.4820044,7.74641879 42.6274417,8.04180807 C42.7196235,8.22903929 42.7297991,8.3079497 42.7426616,8.99801862 L42.7559097,9.7502729 L41.9255143,9.7502729 C41.2094317,9.7502729 41.0906222,9.74003335 41.0686309,9.68272894 C41.0293188,9.58027318 41.0841337,8.39215726 41.136177,8.21927651 C41.2584618,7.81306174 41.5177797,7.61535406 41.9268365,7.61535406 L41.9268365,7.61535406 L41.9268365,7.61535406 Z M35.8187458,7.71468341 C36.0581724,7.70609627 36.264218,7.81599278 36.374988,8.03915929 C36.4521079,8.19452289 36.4573079,8.33405356 36.4663731,10.7038347 C36.4750696,12.977434 36.4692974,13.2230775 36.4028024,13.4148638 C36.3517381,13.5621318 36.2861457,13.6548587 36.1856022,13.7221225 C35.931497,13.8921159 35.5625085,13.8378379 35.2267428,13.5817371 L35.078411,13.4691638 L35.078411,10.7674055 L35.078411,8.06432272 L35.2267428,7.95174946 C35.4258029,7.79991912 35.6325249,7.72136258 35.8187458,7.71468341 L35.8187458,7.71468341 L35.8187458,7.71468341 Z" id="rect3947" fill="#000000" opacity="0.753"></path>
                                        <path d="M21.347122,3.05888799 L21.347122,3.86411793 L21.347122,4.66802347 L22.2900886,4.67994299 L23.2330553,4.69186252 L23.2436504,9.79871554 C23.2494082,12.6074847 23.2629289,14.928913 23.2741114,14.9585442 C23.2898185,15.0001657 23.4862369,15.0098047 24.1336414,15.0009247 L24.9706567,14.9903296 L24.991847,9.84109606 L25.0130372,4.69186252 L25.9785185,4.67994299 L26.9439998,4.66802347 L26.9320803,3.87471306 L26.9201608,3.08140264 L24.1336414,3.06948312 L21.347122,3.05888799 L21.347122,3.05888799 L21.347122,3.05888799 Z M33.4679516,3.06021026 L33.4679516,9.035864 L33.4679516,15.0115177 L34.230801,15.0115177 L34.9936504,15.0115177 L34.9936504,14.6089028 C34.9936504,14.3420538 35.0101373,14.2062878 35.0413285,14.2062878 C35.067212,14.2062878 35.23862,14.3469492 35.4227532,14.5201686 C36.0161017,15.078348 36.5301351,15.2324699 37.1709498,15.0433031 C37.4164983,14.9708168 37.7160438,14.6777601 37.8503646,14.3784587 C38.1082925,13.8037178 38.1086188,13.7902471 38.1086188,10.5615628 C38.1086188,7.91099041 38.1022363,7.58429549 38.0357794,7.29826256 C37.8227071,6.38124001 37.3577758,5.97976381 36.5776224,6.03876639 C36.1401325,6.07185372 35.7954191,6.24602749 35.3830214,6.64401324 C35.203837,6.81693552 35.0429177,6.95920948 35.0254358,6.95921838 C35.0079538,6.95922685 34.9936504,6.08194155 34.9936504,5.00971432 L34.9936504,3.06021026 L34.230801,3.06021026 L33.4679516,3.06021026 L33.4679516,3.06021026 L33.4679516,3.06021026 Z M41.8645927,6.02949565 C41.6162513,6.03457962 41.3677277,6.07906646 41.1295576,6.16590796 C40.3077654,6.46554885 39.8221693,7.00559242 39.6263713,7.83993862 C39.5571682,8.13482993 39.5495566,8.40003495 39.5495566,10.5615628 C39.5495566,13.2126103 39.5592702,13.3208307 39.8303276,13.8632705 C40.3132621,14.8297006 41.523048,15.3336737 42.6221445,15.0260861 C43.4384739,14.7976326 44.0032495,14.2406478 44.2153852,13.4540335 C44.2516417,13.3196135 44.2918524,12.9385804 44.3054438,12.6064231 L44.3306094,12.0025006 L43.5452474,12.0025006 L42.7598812,12.0025006 L42.7400175,12.5428523 C42.7179542,13.1582349 42.6549174,13.3690589 42.4314322,13.5652824 C42.1929273,13.7746918 41.7549627,13.7891533 41.4699241,13.5970678 C41.1310621,13.3687092 41.0463307,12.982596 41.0633338,11.7270272 L41.0752554,10.8370362 L42.701608,10.8251167 L44.3279606,10.8145216 L44.3054438,9.49013023 C44.2805283,8.01339871 44.2497261,7.7892405 44.000838,7.26515278 C43.6319283,6.4883411 42.7515195,6.01133899 41.8645927,6.02949565 L41.8645927,6.02949565 L41.8645927,6.02949565 Z M27.3227757,6.15398844 L27.3227757,9.99075016 C27.3227757,14.1689133 27.3272036,14.2589727 27.5611662,14.6618784 C27.8167432,15.1020069 28.4168209,15.2398971 29.0484576,15.0035714 C29.3535004,14.8894402 29.7108563,14.6425673 30.0126145,14.3360782 C30.1517405,14.1947709 30.2900069,14.0791462 30.3198733,14.0791462 C30.3607316,14.0791462 30.3741734,14.1945628 30.3741734,14.545332 L30.3741734,15.0115177 L31.1370228,15.0115177 L31.8998722,15.0115177 L31.8998722,10.5827531 L31.8998722,6.15398844 L31.1370228,6.15398844 L30.3741734,6.15398844 L30.3741734,9.57091811 L30.3741734,12.9865234 L30.0457243,13.313648 C29.7849697,13.5728465 29.675333,13.6509211 29.5146434,13.6950728 C29.2415001,13.7701219 29.0697221,13.7186257 28.9570746,13.526875 C28.8720754,13.3821875 28.8703878,13.3171156 28.8590697,9.76692803 L28.8471502,6.15398844 L28.0856251,6.15398844 L27.3227757,6.15398844 L27.3227757,6.15398844 L27.3227757,6.15398844 Z M41.926837,7.40951143 C42.2673433,7.40951143 42.4820049,7.54057617 42.6274421,7.83596545 C42.719624,8.02319666 42.7297995,8.10210708 42.742662,8.792176 L42.7559102,9.54443028 L41.9255147,9.54443028 C41.2094322,9.54443028 41.0906226,9.53419072 41.0686314,9.47688632 C41.0293192,9.37443056 41.0841342,8.18631463 41.1361774,8.01343389 C41.2584622,7.60721912 41.5177801,7.40951143 41.926837,7.40951143 L41.926837,7.40951143 L41.926837,7.40951143 Z M35.8187462,7.50884078 C36.0581728,7.50025364 36.2642185,7.61015015 36.3749884,7.83331666 C36.4521083,7.98868027 36.4573084,8.12821094 36.4663736,10.497992 C36.47507,12.7715914 36.4692978,13.0172349 36.4028028,13.2090211 C36.3517385,13.3562892 36.2861461,13.4490161 36.1856026,13.5162799 C35.9314975,13.6862733 35.5625089,13.6319953 35.2267433,13.3758944 L35.0784114,13.2633212 L35.0784114,10.5615628 L35.0784114,7.8584801 L35.2267433,7.74590683 C35.4258033,7.59407649 35.6325253,7.51551995 35.8187462,7.50884078 L35.8187462,7.50884078 L35.8187462,7.50884078 Z" id="rect3947-6" stroke="#FFFFFF" fill="url(#linearGradient-2)"></path>
                                    </g>
                                </g>
                            </g>
                        </g>
                    </g>
                </g>
            </g>
        </g>
    </g>
</svg>