<svg xmlns="http://www.w3.org/2000/svg" viewBox="0 0 32 32"><path d="m13 4h3v2h-3zm-3 2h3v2h-3zm3 2h3v2h-3zm-3 2h3v2h-3zm3 2h3v2h-3zm-3 2h3v2h-3zm3 2v2h-3v7c0 .552.448 1 1 1h4c.552 0 1-.448 1-1v-9h-3m2 8h-4v-2h4v2m13.232-17.768l-4.465-4.464c-.972-.972-2.893-1.768-4.268-1.768h-15c-1.375 0-2.5 1.125-2.5 2.5v27c0 1.375 1.125 2.5 2.5 2.5h23c1.375 0 2.5-1.125 2.5-2.5v-19c0-1.375-.796-3.296-1.768-4.268zm-1.414 1.414c.098.098.195.218.29.354h-5.108v-5.108c.136.095.256.192.354.29l4.465 4.464m1.181 21.854c0 .271-.229.5-.5.5h-23c-.271 0-.5-.229-.5-.5v-27c0-.271.229-.5.5-.5h15c.151 0 .32.019.5.053v7.947h7.947c.034.18.053.349.053.5v19" fill="#53585f"/></svg>