<?xml version="1.0" encoding="utf-8"?>
<!-- Generated by IcoMoon.io -->
<!DOCTYPE svg PUBLIC "-//W3C//DTD SVG 1.1//EN" "http://www.w3.org/Graphics/SVG/1.1/DTD/svg11.dtd">
<svg version="1.1" xmlns="http://www.w3.org/2000/svg" xmlns:xlink="http://www.w3.org/1999/xlink" width="32" height="32" viewBox="0 0 32 32">
<path d="M16 4c-7.732 0-14 6.268-14 14v6h2v-6c0-6.627 5.373-10 12-10s12 3.373 12 10v6h2v-6c0-7.732-6.268-14-14-14zM8.667 18h-1.333c-0.733 0-1.333 0.6-1.333 1.333v7.333c0 0.733 0.6 1.333 1.333 1.333h1.333c0.733 0 1.333-0.6 1.333-1.333v-7.333c0-0.733-0.6-1.333-1.333-1.333zM24.667 18h-1.333c-0.733 0-1.333 0.6-1.333 1.333v7.333c0 0.733 0.6 1.333 1.333 1.333h1.333c0.733 0 1.333-0.6 1.333-1.333v-7.333c0-0.733-0.6-1.333-1.333-1.333z"></path>
</svg>
