<svg xmlns="http://www.w3.org/2000/svg" viewBox="0 0 32 32"><path d="m12 19.11v-3.57c0-.473.209-.92.589-1.259s.881-.526 1.411-.526v-1.785c-2.2 0-4 1.606-4 3.569v2.677c0 .493-.448.892-1 .892h-1v1.785h1c.552 0 1 .4 1 .892v2.677c0 1.963 1.8 3.569 4 3.569v-1.785c-.53 0-1.031-.187-1.411-.526s-.589-.786-.589-1.259v-3.57c0-.493-.448-.892-1-.892.552 0 1-.4 1-.892zm8 1.784v3.57c0 .473-.209.92-.589 1.259s-.881.526-1.411.526v1.785c2.2 0 4-1.606 4-3.569v-2.677c0-.493.448-.892 1-.892h1v-1.785h-1c-.552 0-1-.4-1-.892v-2.677c0-1.963-1.8-3.569-4-3.569v1.785c.53 0 1.031.187 1.411.526s.589.786.589 1.259v3.57c0 .493.448.892 1 .892-.552 0-1 .4-1 .892zm8.232-14.66l-4.465-4.464c-.972-.972-2.893-1.768-4.268-1.768h-15c-1.375 0-2.5 1.125-2.5 2.5v27c0 1.375 1.125 2.5 2.5 2.5h23c1.375 0 2.5-1.125 2.5-2.5v-19c0-1.375-.796-3.296-1.768-4.268zm-1.414 1.414c.098.098.195.218.29.354h-5.108v-5.108c.136.095.256.192.354.29l4.465 4.464m1.181 21.854c0 .271-.229.5-.5.5h-23c-.271 0-.5-.229-.5-.5v-27c0-.271.229-.5.5-.5h15c.151 0 .32.019.5.053v7.947h7.947c.034.18.053.349.053.5v19" fill="#53585f"/></svg>