<svg xmlns="http://www.w3.org/2000/svg" viewBox="0 0 32 32"><path d="m6 16h6v2h-6v-2m0 4h6v2h-6v-2m0 4h6v2h-6v-2m22.23-17.768l-4.465-4.464c-.972-.972-2.893-1.768-4.268-1.768h-15c-1.375 0-2.5 1.125-2.5 2.5v27c0 1.375 1.125 2.5 2.5 2.5h23c1.375 0 2.5-1.125 2.5-2.5v-19c0-1.375-.796-3.296-1.768-4.268zm-1.414 1.414c.098.098.195.218.29.354h-5.108v-5.108c.136.095.256.192.354.29l4.465 4.464m1.181 21.854c0 .271-.229.5-.5.5h-23c-.271 0-.5-.229-.5-.5v-27c0-.271.229-.5.5-.5h15c.151 0 .32.019.5.053v7.947h7.947c.034.18.053.349.053.5v19m-10-7.5h5.9c-.463 2.282-2.481 4-4.9 4-2.761 0-5-2.239-5-5 0-2.419 1.718-4.436 4-4.9v5.9m3-8c2.761 0 5 2.239 5 5 0 .342-.035.677-.1 1h-5.9v-5.9c.323-.066.658-.1 1-.1" fill="#53585f"/></svg>