<?xml version="1.0" encoding="utf-8"?>
<!-- Generated by IcoMoon.io -->
<!DOCTYPE svg PUBLIC "-//W3C//DTD SVG 1.1//EN" "http://www.w3.org/Graphics/SVG/1.1/DTD/svg11.dtd">
<svg version="1.1" xmlns="http://www.w3.org/2000/svg" xmlns:xlink="http://www.w3.org/1999/xlink" width="32" height="32" viewBox="0 0 32 32">
<path d="M16 0c-8.837 0-16 2.239-16 5v4c0 2.761 7.163 5 16 5s16-2.239 16-5v-4c0-2.761-7.163-5-16-5zM15.95 16c-7.164 0-13.203-1.471-15.242-3.5-0.476 0.474-0.708 0.977-0.708 1.5v4c0 2.761 7.163 5 16 5s16-2.239 16-5v-4c0-0.523-0.282-1.026-0.758-1.5-2.039 2.029-8.128 3.5-15.292 3.5zM15.95 25c-7.164 0-13.203-1.471-15.242-3.5-0.476 0.474-0.708 0.977-0.708 1.5v4c0 2.761 7.163 5 16 5s16-2.239 16-5v-4c0-0.523-0.282-1.026-0.758-1.5-2.039 2.029-8.128 3.5-15.292 3.5z"></path>
</svg>
