<svg xmlns="http://www.w3.org/2000/svg" viewBox="0 0 32 32"><path d="m16 0c-8.837 0-16 2.239-16 5v4c0 2.761 7.163 5 16 5s16-2.239 16-5v-4c0-2.761-7.163-5-16-5m-.05 16c-7.164 0-13.203-1.471-15.242-3.5-.476.474-.708.977-.708 1.5v4c0 2.761 7.163 5 16 5s16-2.239 16-5v-4c0-.523-.282-1.026-.758-1.5-2.039 2.029-8.128 3.5-15.292 3.5m0 9c-7.164 0-13.203-1.471-15.242-3.5-.476.474-.708.977-.708 1.5v4c0 2.761 7.163 5 16 5s16-2.239 16-5v-4c0-.523-.282-1.026-.758-1.5-2.039 2.029-8.128 3.5-15.292 3.5" fill="#53585f"/></svg>