<?xml version="1.0" standalone="no"?>
<!DOCTYPE svg PUBLIC "-//W3C//DTD SVG 20010904//EN"
 "http://www.w3.org/TR/2001/REC-SVG-20010904/DTD/svg10.dtd">
<svg version="1.0" xmlns="http://www.w3.org/2000/svg"
 width="32" height="32" viewBox="0 0 136.000000 128.000000"
 preserveAspectRatio="xMidYMid meet">
<metadata>
Created by potrace 1.13, written by Peter Selinger 2001-2015
</metadata>
<g transform="translate(0.000000,128.000000) scale(0.100000,-0.100000)"
fill="#000000" stroke="none">
<path d="M343 1122 l-332 -157 335 -3 c183 -1 485 -1 669 0 l334 3 -330 155
c-182 85 -333 156 -337 157 -4 1 -156 -69 -339 -155z"/>
<path d="M80 840 l0 -40 40 0 40 0 0 -240 0 -240 -40 0 -40 0 0 -40 0 -40 120
0 120 0 0 40 0 40 -40 0 -40 0 0 240 0 240 40 0 40 0 0 40 0 40 -120 0 -120 0
0 -40z"/>
<path d="M400 840 l0 -40 40 0 40 0 0 -240 0 -240 -40 0 -40 0 0 -40 0 -40
120 0 120 0 0 40 0 40 -40 0 -40 0 0 240 0 240 40 0 40 0 0 40 0 40 -120 0
-120 0 0 -40z"/>
<path d="M720 840 l0 -40 40 0 40 0 0 -240 0 -240 -40 0 -40 0 0 -40 0 -40
120 0 120 0 0 40 0 40 -40 0 -40 0 0 240 0 240 40 0 40 0 0 40 0 40 -120 0
-120 0 0 -40z"/>
<path d="M1040 840 l0 -40 40 0 40 0 0 -240 0 -240 -40 0 -40 0 0 -40 0 -40
120 0 120 0 0 40 0 40 -40 0 -40 0 0 240 0 240 40 0 40 0 0 40 0 40 -120 0
-120 0 0 -40z"/>
<path d="M40 80 l-40 -80 680 0 680 0 -40 80 -40 80 -600 0 -600 0 -40 -80z"/>
</g>
</svg>
