<svg xmlns="http://www.w3.org/2000/svg" viewBox="0 0 32 32"><path d="m5 12.875c0-1.105-.895-2-2-2s-2 .895-2 2c0 .74.402 1.386 1 1.732v17.393h2v-17.393c.598-.346 1-.992 1-1.732m5-2.875v4.678c-3.758 4.766-6 10.782-6 17.322h2c0-3.511.687-6.916 2.042-10.12.895-2.116 2.054-4.084 3.46-5.88h4.497v-4.497c1.797-1.406 3.765-2.566 5.88-3.46 3.204-1.355 6.609-2.042 10.12-2.042v-2c-6.54 0-12.556 2.242-17.322 6h-4.678zm4.607-8c-.346-.598-.992-1-1.732-1-1.105 0-2 .895-2 2s.895 2 2 2c.74 0 1.386-.402 1.732-1h17.393v-2h-17.393m-4.607 28h4v2h-4zm8 0h4v2h-4zm12-4v4h-4v2h6v-6zm0-16h2v4h-2zm0 8h2v4h-2z" fill="#53585f"/></svg>