<?xml version="1.0" encoding="utf-8"?> <!-- Generator: IcoMoon.io --> <!DOCTYPE svg PUBLIC "-//W3C//DTD SVG 1.1//EN" "http://www.w3.org/Graphics/SVG/1.1/DTD/svg11.dtd"> <svg width="512" height="512" viewBox="0 0 512 512" xmlns="http://www.w3.org/2000/svg" xmlns:xlink="http://www.w3.org/1999/xlink" fill="#000000"><g class="svgGrid" id="svgGrid"><line stroke-width="1" stroke="#B35047" x1="32" x2="32" y1="0" y2="512"></line><line stroke-width="1" stroke="#B35047" x1="64" x2="64" y1="0" y2="512"></line><line stroke-width="1" stroke="#B35047" x1="96" x2="96" y1="0" y2="512"></line><line stroke-width="1" stroke="#B35047" x1="128" x2="128" y1="0" y2="512"></line><line stroke-width="1" stroke="#B35047" x1="160" x2="160" y1="0" y2="512"></line><line stroke-width="1" stroke="#B35047" x1="192" x2="192" y1="0" y2="512"></line><line stroke-width="1" stroke="#B35047" x1="224" x2="224" y1="0" y2="512"></line><line stroke-width="1" stroke="#B35047" x1="256" x2="256" y1="0" y2="512"></line><line stroke-width="1" stroke="#B35047" x1="288" x2="288" y1="0" y2="512"></line><line stroke-width="1" stroke="#B35047" x1="320" x2="320" y1="0" y2="512"></line><line stroke-width="1" stroke="#B35047" x1="352" x2="352" y1="0" y2="512"></line><line stroke-width="1" stroke="#B35047" x1="384" x2="384" y1="0" y2="512"></line><line stroke-width="1" stroke="#B35047" x1="416" x2="416" y1="0" y2="512"></line><line stroke-width="1" stroke="#B35047" x1="448" x2="448" y1="0" y2="512"></line><line stroke-width="1" stroke="#B35047" x1="480" x2="480" y1="0" y2="512"></line><line stroke-width="1" stroke="#B35047" x1="0" x2="512" y1="32" y2="32"></line><line stroke-width="1" stroke="#B35047" x1="0" x2="512" y1="64" y2="64"></line><line stroke-width="1" stroke="#B35047" x1="0" x2="512" y1="96" y2="96"></line><line stroke-width="1" stroke="#B35047" x1="0" x2="512" y1="128" y2="128"></line><line stroke-width="1" stroke="#B35047" x1="0" x2="512" y1="160" y2="160"></line><line stroke-width="1" stroke="#B35047" x1="0" x2="512" y1="192" y2="192"></line><line stroke-width="1" stroke="#B35047" x1="0" x2="512" y1="224" y2="224"></line><line stroke-width="1" stroke="#B35047" x1="0" x2="512" y1="256" y2="256"></line><line stroke-width="1" stroke="#B35047" x1="0" x2="512" y1="288" y2="288"></line><line stroke-width="1" stroke="#B35047" x1="0" x2="512" y1="320" y2="320"></line><line stroke-width="1" stroke="#B35047" x1="0" x2="512" y1="352" y2="352"></line><line stroke-width="1" stroke="#B35047" x1="0" x2="512" y1="384" y2="384"></line><line stroke-width="1" stroke="#B35047" x1="0" x2="512" y1="416" y2="416"></line><line stroke-width="1" stroke="#B35047" x1="0" x2="512" y1="448" y2="448"></line><line stroke-width="1" stroke="#B35047" x1="0" x2="512" y1="480" y2="480"></line><rect x="0" y="0" width="512" height="512" fill="none" stroke-width="1" stroke="#B35047"></rect></g><path d="M 80.00,206.00c0.00-17.673-14.327-32.00-32.00-32.00s-32.00,14.327-32.00,32.00c0.00,11.843, 6.438,22.175, 16.00,27.708L 32.00,512.00 l 32.00,0.00 L 64.00,233.708 C 73.562,228.175, 80.00,217.843, 80.00,206.00zM 160.00,160.00l0.00,74.848 C 99.878,311.102, 64.00,407.359, 64.00,512.00l 32.00,0.00 c0.00-56.174, 10.995-110.65, 32.678-161.916 c 14.316-33.848, 32.865-65.338, 55.366-94.084L 256.00,256.00 l0.00-71.956 c 28.746-22.501, 60.236-41.049, 94.084-55.366 C 401.35,106.995, 455.826,96.00, 512.00,96.00L 512.00,64.00 c-104.641,0.00-200.899,35.878-277.152,96.00L 160.00,160.00 zM 233.708,32.00c-5.534-9.562-15.866-16.00-27.708-16.00c-17.673,0.00-32.00,14.326-32.00,32.00s 14.327,32.00, 32.00,32.00c 11.843,0.00, 22.175-6.438, 27.708-16.00 L 512.00,64.00 L 512.00,32.00 L 233.708,32.00 zM 160.00,480.00L 224.00,480.00L 224.00,512.00L 160.00,512.00zM 288.00,480.00L 352.00,480.00L 352.00,512.00L 288.00,512.00zM 480.00,416.00L 480.00,480.00L 416.00,480.00L 416.00,512.00L 512.00,512.00L 512.00,416.00 zM 480.00,160.00L 512.00,160.00L 512.00,224.00L 480.00,224.00zM 480.00,288.00L 512.00,288.00L 512.00,352.00L 480.00,352.00z" ></path></svg>