<?xml version="1.0" encoding="utf-8"?>
<!-- Generated by IcoMoon.io -->
<!DOCTYPE svg PUBLIC "-//W3C//DTD SVG 1.1//EN" "http://www.w3.org/Graphics/SVG/1.1/DTD/svg11.dtd">
<svg version="1.1" xmlns="http://www.w3.org/2000/svg" xmlns:xlink="http://www.w3.org/1999/xlink" width="32" height="32" viewBox="0 0 32 32">
<path d="M5 12.875c0-1.105-0.895-2-2-2s-2 0.895-2 2c0 0.74 0.402 1.386 1 1.732v17.393h2v-17.393c0.598-0.346 1-0.992 1-1.732zM10 10v4.678c-3.758 4.766-6 10.782-6 17.322h2c0-3.511 0.687-6.916 2.042-10.12 0.895-2.116 2.054-4.084 3.46-5.88h4.497v-4.497c1.797-1.406 3.765-2.566 5.88-3.46 3.204-1.355 6.609-2.042 10.12-2.042v-2c-6.54 0-12.556 2.242-17.322 6h-4.678zM14.607 2c-0.346-0.598-0.992-1-1.732-1-1.105 0-2 0.895-2 2s0.895 2 2 2c0.74 0 1.386-0.402 1.732-1h17.393v-2h-17.393zM10 30h4v2h-4zM18 30h4v2h-4zM30 26v4h-4v2h6v-6zM30 10h2v4h-2zM30 18h2v4h-2z"></path>
</svg>
