<?xml version="1.0" encoding="utf-8"?> <!-- Generator: IcoMoon.io --> <!DOCTYPE svg PUBLIC "-//W3C//DTD SVG 1.1//EN" "http://www.w3.org/Graphics/SVG/1.1/DTD/svg11.dtd"> <svg fill="#dddddd" xmlns:xlink="http://www.w3.org/1999/xlink" xmlns="http://www.w3.org/2000/svg" viewBox="0 0 512 512" height="512" width="512"><path d="M 32.00,32.00L 160.00,32.00L 160.00,160.00L 32.00,160.00zM 192.00,32.00L 320.00,32.00L 320.00,160.00L 192.00,160.00zM 352.00,32.00L 480.00,32.00L 480.00,160.00L 352.00,160.00zM 32.00,192.00L 160.00,192.00L 160.00,320.00L 32.00,320.00zM 192.00,192.00L 320.00,192.00L 320.00,320.00L 192.00,320.00zM 352.00,192.00L 480.00,192.00L 480.00,320.00L 352.00,320.00zM 32.00,352.00L 160.00,352.00L 160.00,480.00L 32.00,480.00zM 192.00,352.00L 320.00,352.00L 320.00,480.00L 192.00,480.00zM 352.00,352.00L 480.00,352.00L 480.00,480.00L 352.00,480.00z"></path></svg>