<?xml version="1.0" standalone="no"?>
<!DOCTYPE svg PUBLIC "-//W3C//DTD SVG 20010904//EN"
 "http://www.w3.org/TR/2001/REC-SVG-20010904/DTD/svg10.dtd">
<svg version="1.0" xmlns="http://www.w3.org/2000/svg"
 width="137.000000pt" height="137.000000pt" viewBox="0 0 137.000000 137.000000"
 preserveAspectRatio="xMidYMid meet">
<metadata>
Created by potrace 1.11, written by Peter Selinger 2001-2013
</metadata>
<g transform="translate(0.000000,137.000000) scale(0.100000,-0.100000)"
fill="#000000" stroke="none">
<path d="M510 1354 c-36 -8 -74 -16 -85 -18 -37 -9 -80 -23 -131 -45 -53 -23
-64 -42 -93 -156 -21 -82 -23 -103 -27 -220 -8 -276 89 -530 278 -728 66 -68
183 -161 217 -172 45 -14 239 152 334 286 130 184 189 383 183 614 -4 143 -6
152 -42 276 l-26 85 -67 26 c-36 14 -100 34 -141 43 -98 23 -312 28 -400 9z"/>
</g>
</svg>
