<svg width="280px" height="280px" viewBox="0 0 280 280" version="1.1" xmlns="http://www.w3.org/2000/svg" xmlns:xlink="http://www.w3.org/1999/xlink" xmlns:sketch="http://www.bohemiancoding.com/sketch/ns">
    <title>Artboard 3</title>
    <desc>Created with Sketch.</desc>
    <defs></defs>
    <g id="Page-1" stroke="none" stroke-width="1" fill="none" fill-rule="evenodd" sketch:type="MSPage">
        <g id="Artboard-3" sketch:type="MSArtboardGroup" fill="#FFFFFF">
            <g id="A-+-Oval-1-Copy-5-+-A" sketch:type="MSLayerGroup" transform="translate(41.000000, 7.000000)">
                <path d="M99.1459274,264.930362 C158.415499,230.66383 198.291854,166.617101 198.291854,93.2619299 C198.291854,66.7271772 193.074095,41.41042 183.608079,18.280623 C158.282464,6.54799187 130.062515,0 100.31235,0 C69.427286,0 40.1914136,7.05710172 14.1309809,19.6459053 C5.01482726,42.4052905 0,67.248298 0,93.2619299 C0,166.617101 39.8763561,230.66383 99.1459274,264.930362 L99.1459274,264.930362 Z M112.086193,21.4789283 C131.283825,22.9895401 149.520667,28.029423 166.183768,35.9685455 C173.720353,54.9076931 177.874591,75.6375681 177.874591,97.3647626 C177.874591,121.822285 172.610674,145.016084 163.183829,165.814482 L112.086193,21.4789283 Z M86.6458135,21.560873 C66.9301366,23.2409598 48.2426296,28.644829 31.2507034,37.0864663 C23.9926693,55.7223133 20,76.0642724 20,97.3647626 C20,122.350168 25.493599,146.016711 35.3069671,167.157841 L86.6458135,21.560873 Z M48.6380696,190.593048 C61.8311515,209.87995 79.0071034,226.080014 98.9372958,237.930362 C119.083007,225.951868 136.414588,209.529077 149.66312,189.966279 L136.1,150.68 L62.18,150.68 L48.638072,190.593051 Z M129.14,130.52 L68.9,130.52 L98.9,42.2 L129.14,130.52 Z" id="Oval-1-Copy-5" sketch:type="MSShapeGroup"></path>
            </g>
        </g>
    </g>
</svg>