<?xml version="1.0" encoding="utf-8"?> <!-- Generator: IcoMoon.io --> <!DOCTYPE svg PUBLIC "-//W3C//DTD SVG 1.1//EN" "http://www.w3.org/Graphics/SVG/1.1/DTD/svg11.dtd"> <svg width="512" height="512" viewBox="0 0 512 512" xmlns="http://www.w3.org/2000/svg" xmlns:xlink="http://www.w3.org/1999/xlink" fill="#ffffff"><path d="M 256.00,0.00C 114.614,0.00,0.00,35.816,0.00,80.00l0.00,64.00 c0.00,44.183, 114.611,80.00, 256.00,80.00c 141.385,0.00, 256.00-35.817, 256.00-80.00L 512.00,80.00 C 512.00,35.816, 397.385,0.00, 256.00,0.00 zM 255.193,256.00C 140.566,256.00, 43.94,232.457, 11.32,200.00C 3.705,207.577,0.00,215.639,0.00,224.00l0.00,64.00 c0.00,44.184, 114.611,80.00, 256.00,80.00 c 141.385,0.00, 256.00-35.816, 256.00-80.00l0.00-64.00 c0.00-8.361-4.516-16.423-12.131-24.00C 467.25,232.457, 369.82,256.00, 255.193,256.00zM 255.193,400.00C 140.566,400.00, 43.94,376.456, 11.32,344.00C 3.705,351.576,0.00,359.639,0.00,368.00l0.00,64.00 c0.00,44.183, 114.611,80.00, 256.00,80.00 c 141.385,0.00, 256.00-35.817, 256.00-80.00l0.00-64.00 c0.00-8.361-4.516-16.424-12.131-24.00C 467.25,376.456, 369.82,400.00, 255.193,400.00z" ></path></svg>