<?xml version="1.0" encoding="utf-8"?> <!-- Generator: IcoMoon.io --> <!DOCTYPE svg PUBLIC "-//W3C//DTD SVG 1.1//EN" "http://www.w3.org/Graphics/SVG/1.1/DTD/svg11.dtd"> <svg width="512" height="512" viewBox="0 0 512 512" xmlns="http://www.w3.org/2000/svg" xmlns:xlink="http://www.w3.org/1999/xlink" fill="#ffffff"><path d="M 479.165,128.125L 394.94,128.125 c-21.715-0.033-43.348-1.503-22.252-38.729c 21.138-37.30, 36.059-89.521-48.802-89.521 c-84.857,0.00-69.935,52.221-48.797,89.521c 21.096,37.226-0.538,38.694-22.255,38.729l-91.938,0.00 c-18.06,0.00-32.835,14.778-32.835,32.834 l0.00,102.189 c0.00,21.756, 5.904,43.513-31.393,22.378C 59.372,264.389,0.00,249.469,0.00,334.328c0.00,84.854, 59.37,69.935, 96.67,48.798 c 37.297-21.137, 31.393,0.62, 31.393,22.38l0.00,73.783 c0.00,18.062, 14.777,32.835, 32.835,32.835l 91.811,0.00 c 21.76,0.00, 43.517-8.706, 22.382-46.004 c-21.137-37.295-36.061-89.519, 48.797-89.519c 84.858,0.00, 69.938,52.221, 48.80,89.519c-21.135,37.299, 0.623,46.005, 22.381,46.005l 84.096,0.00 c 18.062,0.00, 32.837-14.777, 32.837-32.835L 512.002,160.958 C 512.002,142.901, 497.227,128.125, 479.165,128.125z" ></path></svg>