<svg width="404px" height="404px" viewBox="0 0 404 404" version="1.1" xmlns="http://www.w3.org/2000/svg" xmlns:xlink="http://www.w3.org/1999/xlink" xmlns:sketch="http://www.bohemiancoding.com/sketch/ns">
    <title>Shape</title>
    <desc>Created with Sketch.</desc>
    <defs></defs>
    <g id="Page-1" stroke="none" stroke-width="1" fill="none" fill-rule="evenodd" sketch:type="MSPage">
        <g id="icon-transparent" sketch:type="MSLayerGroup" fill="#FFFFFF">
            <g id="Page-1" sketch:type="MSShapeGroup">
                <path d="M291.483341,308.868831 C284.104893,307.568657 283.936705,285.087127 283.936705,285.087127 C283.936705,285.087127 305.61732,261.304552 310.342143,229.32409 C323.054315,229.32409 330.903844,195.323746 318.192451,183.361967 C318.722708,170.769247 334.531555,84.5104197 254.5,84.5104197 C174.469224,84.5104197 190.27807,170.769247 190.807549,183.361967 C178.094599,195.323746 185.945685,229.32409 198.657078,229.32409 C203.381122,261.304552 225.063295,285.087127 225.063295,285.087127 C225.063295,285.087127 224.895107,307.568657 217.516659,308.868831 C193.749273,313.060022 105,356.435721 105,404 L254.5,404 L404,404 C404,356.435721 315.250727,313.060022 291.483341,308.868831 L291.483341,308.868831 L291.483341,308.868831 Z M148.82152,315.490728 C167.894504,303.676926 191.04992,292.729906 210.044178,286.152468 C203.230606,276.391614 195.642765,263.118383 190.869113,247.398847 C184.205204,241.930993 178.781857,234.113433 175.298077,224.510096 C171.809106,214.891964 170.487225,204.123347 171.574663,194.18844 C172.354988,187.055776 174.37674,180.409588 177.479008,174.569262 C175.597404,154.298258 174.272062,114.506415 200.165538,85.4840597 C210.206818,74.228966 222.898782,66.1381436 238.100418,61.253365 C235.386582,33.0742934 221.161651,0 166.100275,0 C77.1829911,0 94.7472301,86.2585922 95.3355017,98.8512781 C81.2109227,110.813025 89.9337825,144.813276 104.056632,144.813276 C109.305227,176.79365 133.394958,200.57616 133.394958,200.57616 C133.394958,200.57616 133.208095,223.057629 125.010354,224.3578 C98.6038708,228.54985 0,271.925431 0,319.48958 L142.567672,319.48958 C144.604996,318.151988 146.679519,316.817877 148.82152,315.490728 L148.82152,315.490728 L148.82152,315.490728 Z" id="Shape"></path>
            </g>
        </g>
    </g>
</svg>