<?xml version="1.0" encoding="utf-8"?>
<!-- Generated by IcoMoon.io -->
<!DOCTYPE svg PUBLIC "-//W3C//DTD SVG 1.1//EN" "http://www.w3.org/Graphics/SVG/1.1/DTD/svg11.dtd">
<svg version="1.1" xmlns="http://www.w3.org/2000/svg" width="32" height="32" viewBox="0 0 32 32">
  <path fill="#FFF"
        d="M27.879 5.879l-3.757-3.757c-1.167-1.167-3.471-2.121-5.121-2.121h-14c-1.65 0-3 1.35-3 3v26c0 1.65 1.35 3 3 3h22c1.65 0 3-1.35 3-3v-18c0-1.65-0.955-3.955-2.121-5.121zM20 4.236c0.069 0.025 0.139 0.053 0.211 0.082 0.564 0.234 0.956 0.505 1.082 0.631l3.757 3.757c0.126 0.126 0.397 0.517 0.631 1.082 0.030 0.072 0.057 0.143 0.082 0.211h-5.764v-5.764zM26 28h-20v-24h12v8h8v16zM8 16h16v2h-16zM8 20h16v2h-16zM8 24h16v2h-16z"></path>
</svg>
