<svg xmlns="http://www.w3.org/2000/svg" viewBox="0 0 32 32"><path d="m29.18 19.07c-1.679-2.908-.669-6.634 2.255-8.328l-3.145-5.447c-.898.527-1.943.829-3.058.829-3.361 0-6.085-2.742-6.085-6.125h-6.289c.008 1.044-.252 2.103-.811 3.07-1.679 2.908-5.411 3.897-8.339 2.211l-3.144 5.447c.905.515 1.689 1.268 2.246 2.234 1.676 2.903.672 6.623-2.241 8.319l3.145 5.447c.895-.522 1.935-.82 3.044-.82 3.35 0 6.067 2.725 6.084 6.092h6.289c-.003-1.034.259-2.08.811-3.038 1.676-2.903 5.399-3.894 8.325-2.219l3.145-5.447c-.899-.515-1.678-1.266-2.232-2.226zm-13.181 3.409c-3.578 0-6.479-2.901-6.479-6.479s2.901-6.479 6.479-6.479c3.578 0 6.479 2.901 6.479 6.479s-2.901 6.479-6.479 6.479" fill="#53585f"/></svg>