<svg xmlns="http://www.w3.org/2000/svg" width="32" height="32" viewBox="0 0 136.000000 128.000000"><g transform="matrix(.1 0 0-.1 0 128)" fill="#53585f"><path d="m343 1122l-332-157 335-3c183-1 485-1 669 0l334 3-330 155c-182 85-333 156-337 157-4 1-156-69-339-155"/><path d="m80 840v-40h40 40v-240-240h-40-40v-40-40h120 120v40 40h-40-40v240 240h40 40v40 40h-120-120v-40"/><path d="m400 840v-40h40 40v-240-240h-40-40v-40-40h120 120v40 40h-40-40v240 240h40 40v40 40h-120-120v-40"/><path d="m720 840v-40h40 40v-240-240h-40-40v-40-40h120 120v40 40h-40-40v240 240h40 40v40 40h-120-120v-40"/><path d="m1040 840v-40h40 40v-240-240h-40-40v-40-40h120 120v40 40h-40-40v240 240h40 40v40 40h-120-120v-40"/><path d="m40 80l-40-80h680 680l-40 80-40 80h-600-600l-40-80"/></g></svg>