<?xml version="1.0" encoding="UTF-8" standalone="no"?>
<svg width="512px" height="464px" viewBox="0 0 512 464" version="1.1" xmlns="http://www.w3.org/2000/svg"
     xmlns:sketch="http://www.bohemiancoding.com/sketch/ns">
    <!-- Generator: Sketch 3.5.1 (25234) - http://www.bohemiancoding.com/sketch -->
    <title>Shape</title>
    <desc>Created with Sketch.</desc>
    <defs></defs>
    <g id="Page-1" stroke="none" stroke-width="1" fill="none" fill-rule="evenodd" sketch:type="MSPage">
        <path d="M367.497,354.687 C358.021,353.193 357.805,327.36 357.805,327.36 C357.805,327.36 385.649,300.032 391.717,263.284 C408.043,263.284 418.124,224.215 401.799,210.47 C402.48,196 422.783,96.882 320,96.882 C217.218,96.882 237.521,196 238.201,210.47 C221.874,224.215 231.957,263.284 248.282,263.284 C254.349,300.032 282.195,327.36 282.195,327.36 C282.195,327.36 281.979,353.193 272.503,354.687 C241.979,359.503 128,409.345 128,464 L320,464 L512,464 C512,409.345 398.021,359.503 367.497,354.687 L367.497,354.687 Z M172.027,363.405 C194.074,349.83 220.84,337.251 242.796,329.693 C234.92,318.477 226.149,303.225 220.631,285.162 C212.928,278.879 206.659,269.896 202.632,258.861 C198.599,247.809 197.071,235.435 198.328,224.019 C199.23,215.823 201.567,208.186 205.153,201.475 C202.978,178.182 201.446,132.458 231.377,99.109 C242.984,86.176 257.655,76.879 275.227,71.266 C272.09,38.886 255.647,0.881 192,0.881 C89.218,0.881 109.521,99.999 110.201,114.469 C93.874,128.214 103.957,167.283 120.282,167.283 C126.349,204.031 154.195,231.359 154.195,231.359 C154.195,231.359 153.979,257.192 144.503,258.686 C113.979,263.503 0,313.345 0,368 L164.798,368 C167.153,366.463 169.551,364.93 172.027,363.405 L172.027,363.405 Z" id="Shape" fill="#000000" sketch:type="MSShapeGroup"></path>
    </g>
</svg>